<svg width="1920" height="1080" viewBox="0 0 1920 1080" fill="none" xmlns="http://www.w3.org/2000/svg">
<g clip-path="url(#clip0_142_54)">
<rect width="1920" height="1080" fill="#391DE3"/>
<g filter="url(#filter0_f_142_54)">
<circle cx="1856.5" cy="936.5" r="585.5" fill="#0F0A44"/>
</g>
<g filter="url(#filter1_f_142_54)">
<circle cx="49.5" cy="179.5" r="585.5" fill="#0F0A44"/>
</g>
<rect opacity="0.2" x="-37.5" y="-88.5" width="158" height="158" rx="28.5" stroke="white" stroke-width="3"/>
<rect opacity="0.2" x="64.5" y="108.5" width="158" height="158" rx="28.5" stroke="white" stroke-width="3"/>
<rect opacity="0.2" x="238.5" y="-66.5" width="158" height="158" rx="28.5" stroke="white" stroke-width="3"/>
<rect opacity="0.2" x="298.5" y="386.5" width="67" height="67" rx="8.5" stroke="white" stroke-width="3"/>
<rect opacity="0.2" x="136.5" y="566.5" width="67" height="67" rx="8.5" stroke="white" stroke-width="3"/>
<rect opacity="0.2" x="-15.5" y="257.5" width="67" height="67" rx="8.5" stroke="white" stroke-width="3"/>
<rect opacity="0.2" x="411.5" y="94.5" width="67" height="67" rx="8.5" stroke="white" stroke-width="3"/>
<rect opacity="0.2" x="276.5" y="179.5" width="158" height="158" rx="28.5" stroke="white" stroke-width="3"/>
<rect opacity="0.2" x="64.5" y="341.5" width="158" height="158" rx="28.5" stroke="white" stroke-width="3"/>
<rect opacity="0.2" x="-71.5" y="551.5" width="158" height="158" rx="28.5" stroke="white" stroke-width="3"/>
<rect opacity="0.2" x="252.5" y="497.5" width="158" height="158" rx="28.5" stroke="white" stroke-width="3"/>
<rect opacity="0.2" x="1241.4" y="508.5" width="223.797" height="223.797" rx="28.5" stroke="white" stroke-width="3"/>
<rect opacity="0.2" x="1385.08" y="786.01" width="223.797" height="223.797" rx="28.5" stroke="white" stroke-width="3"/>
<rect opacity="0.2" x="1630.19" y="539.491" width="223.797" height="223.797" rx="28.5" stroke="white" stroke-width="3"/>
<rect opacity="0.2" x="1272.39" y="995.904" width="95.6076" height="95.6076" rx="8.5" stroke="white" stroke-width="3"/>
<rect opacity="0.2" x="1873.89" y="766.288" width="95.6076" height="95.6076" rx="8.5" stroke="white" stroke-width="3"/>
<rect opacity="0.2" x="1683.72" y="886.026" width="223.797" height="223.797" rx="28.5" stroke="white" stroke-width="3"/>
</g>
<defs>
<filter id="filter0_f_142_54" x="771" y="-149" width="2171" height="2171" filterUnits="userSpaceOnUse" color-interpolation-filters="sRGB">
<feFlood flood-opacity="0" result="BackgroundImageFix"/>
<feBlend mode="normal" in="SourceGraphic" in2="BackgroundImageFix" result="shape"/>
<feGaussianBlur stdDeviation="250" result="effect1_foregroundBlur_142_54"/>
</filter>
<filter id="filter1_f_142_54" x="-1036" y="-906" width="2171" height="2171" filterUnits="userSpaceOnUse" color-interpolation-filters="sRGB">
<feFlood flood-opacity="0" result="BackgroundImageFix"/>
<feBlend mode="normal" in="SourceGraphic" in2="BackgroundImageFix" result="shape"/>
<feGaussianBlur stdDeviation="250" result="effect1_foregroundBlur_142_54"/>
</filter>
<clipPath id="clip0_142_54">
<rect width="1920" height="1080" fill="white"/>
</clipPath>
</defs>
</svg>
